<?xml version="1.0" encoding="UTF-8"?>
<svg width="752pt" height="752pt" version="1.1" viewBox="0 0 752 752" xmlns="http://www.w3.org/2000/svg">
 <g>
  <rect width="752" height="752" fill="#fff"/>
  <path d="m376 165.26c-55.891 0-109.5 22.203-149.02 61.727-39.523 39.52-61.727 93.125-61.727 149.02 0 55.895 22.203 109.5 61.727 149.02 39.52 39.523 93.125 61.727 149.02 61.727 55.895 0 109.5-22.203 149.02-61.727 39.523-39.523 61.727-93.125 61.727-149.02 0-55.891-22.203-109.5-61.727-149.02-39.523-39.523-93.125-61.727-149.02-61.727zm76.277 219.12c-0.30469 0.47266-0.54297 0.94531-0.89453 1.3789l-90.375 112.95c-2.8359 3.6523-7.0586 5.9648-11.66 6.3867-4.6055 0.42188-9.1758-1.082-12.629-4.1562l-2.0664-1.8008c-3.5234-3.1836-5.6992-7.5859-6.0938-12.316-0.39453-4.7344 1.0273-9.4375 3.9727-13.156l81.711-102.15-80.172-100.04c-2.9648-3.7344-4.3945-8.457-4-13.211 0.39453-4.75 2.5898-9.1719 6.1328-12.363l1.3359-1.168c3.4688-3.0859 8.0625-4.5977 12.684-4.1719 4.625 0.42187 8.8672 2.7422 11.719 6.4062l90.926 113.48c2.7109 3.4297 4.1367 7.6992 4.0273 12.07-0.10547 4.3711-1.7422 8.5664-4.6172 11.859z" fill="#ff001b"/>
 </g>
</svg>
