<?xml version="1.0" encoding="UTF-8"?>
<svg width="752pt" height="752pt" version="1.1" viewBox="0 0 752 752" xmlns="http://www.w3.org/2000/svg">
 <g>
  <rect width="752" height="752" fill="#fff"/>
  <path d="m376 165.26c55.895 0 109.5 22.203 149.02 61.727 39.523 39.52 61.727 93.125 61.727 149.02 0 55.895-22.203 109.5-61.727 149.02-39.523 39.523-93.125 61.727-149.02 61.727-55.891 0-109.5-22.203-149.02-61.727-39.523-39.523-61.727-93.125-61.727-149.02 0-55.891 22.203-109.5 61.727-149.02 39.52-39.523 93.125-61.727 149.02-61.727zm-76.273 219.12c0.30469 0.47266 0.54297 0.94531 0.89453 1.3789l90.375 112.95c2.832 3.6523 7.0547 5.9648 11.66 6.3867 4.6016 0.42188 9.1758-1.082 12.629-4.1562l2.0664-1.8008c3.5195-3.1836 5.6992-7.5859 6.0938-12.316 0.39453-4.7344-1.0273-9.4375-3.9727-13.156l-81.715-102.15 80.176-100.04c2.9648-3.7344 4.3945-8.457 4-13.211-0.39844-4.75-2.5898-9.1719-6.1328-12.363l-1.3359-1.168c-3.4688-3.0859-8.0625-4.5977-12.684-4.1719-4.625 0.42187-8.8672 2.7422-11.719 6.4062l-90.926 113.48h-0.003907c-2.707 3.4297-4.1328 7.6992-4.0234 12.07 0.10547 4.3711 1.7422 8.5664 4.6172 11.859z" fill="#ff001b"/>
 </g>
</svg>
